<?xml version="1.0" standalone="no"?>
<!DOCTYPE svg PUBLIC "-//W3C//DTD SVG 20010904//EN"
 "http://www.w3.org/TR/2001/REC-SVG-20010904/DTD/svg10.dtd">
<svg version="1.0" xmlns="http://www.w3.org/2000/svg"
 width="180.000000pt" height="161.000000pt" viewBox="0 0 180.000000 161.000000"
 preserveAspectRatio="xMidYMid meet">

<g transform="translate(0.000000,161.000000) scale(0.100000,-0.100000)"
fill="#000000" stroke="none">
<path d="M198 1599 c-23 -13 -23 -30 2 -62 27 -34 25 -52 -9 -77 -26 -18 -29
-25 -24 -55 7 -41 -7 -61 -47 -70 -40 -9 -57 -31 -42 -56 7 -10 8 -19 3 -19
-5 0 -23 -12 -40 -26 -42 -35 -49 -81 -23 -142 11 -26 36 -110 56 -187 63
-246 207 -500 363 -644 179 -166 366 -234 695 -256 115 -8 308 7 392 31 27 8
67 14 88 14 22 0 63 7 91 16 90 27 99 32 95 57 -3 20 -9 22 -68 25 -35 2 -69
7 -75 12 -6 5 -17 3 -27 -4 -12 -9 -35 -9 -90 -2 -40 5 -75 11 -77 13 -3 2 5
17 17 33 29 39 28 50 -5 50 -19 0 -40 -12 -67 -40 -21 -22 -47 -40 -58 -40
-38 0 -143 32 -214 65 -133 61 -210 124 -318 259 -110 138 -153 290 -172 606
-8 146 -5 151 92 125 127 -34 95 31 -39 80 -40 14 -81 31 -92 37 -11 7 -33 18
-50 27 -16 8 -37 23 -45 32 -8 10 -35 21 -59 26 -42 8 -53 17 -65 56 -4 13
-16 17 -55 17 -54 0 -62 9 -54 55 9 44 -36 69 -79 44z m59 -15 c2 -7 -10 -14
-27 -16 -29 -4 -40 9 -23 26 10 10 46 3 50 -10z m70 -110 c-3 -3 -12 -4 -19
-1 -8 3 -5 6 6 6 11 1 17 -2 13 -5z m27 -53 c18 -8 23 -15 19 -30 -7 -27 -28
-27 -47 1 -27 38 -19 46 28 29z m-51 -38 c-7 -2 -21 -2 -30 0 -10 3 -4 5 12 5
17 0 24 -2 18 -5z m142 -23 c-4 -6 -1 -18 6 -26 10 -12 9 -13 -5 -8 -10 4 -16
1 -16 -9 0 -27 -21 -30 -46 -6 -13 12 -24 18 -24 13 0 -5 -26 -7 -57 -5 l-58
4 80 22 c90 25 129 30 120 15z m225 -68 c0 -46 -86 -82 -239 -101 -39 -5 -96
-21 -127 -35 -42 -20 -66 -25 -91 -20 -26 5 -37 2 -47 -12 -13 -17 -15 -17
-40 -1 -28 19 -34 42 -13 50 6 3 2 6 -10 6 -26 1 -43 -25 -43 -66 0 -22 -2
-25 -10 -13 -18 27 -11 69 13 84 36 23 77 29 77 12 0 -17 30 -36 55 -36 12 0
15 5 9 23 -4 12 -12 25 -18 29 -12 8 -1 13 59 27 22 5 83 21 135 35 108 30
142 33 134 12 -6 -16 22 -30 32 -15 3 5 0 16 -6 24 -11 13 -2 15 59 15 62 0
71 -2 71 -18z m120 -42 c8 -5 12 -11 10 -14 -3 -2 -14 2 -24 10 -22 15 -10 19
14 4z m-172 -67 c5 -10 10 -65 10 -123 1 -58 6 -130 11 -160 5 -30 6 -57 2
-60 -4 -3 -11 -14 -14 -24 -6 -16 -5 -17 8 -6 9 7 17 11 18 9 2 -2 11 -40 21
-84 10 -44 22 -87 27 -96 5 -10 3 -21 -3 -27 -9 -9 -6 -17 10 -32 12 -12 22
-26 22 -33 0 -9 2 -9 8 0 5 8 21 -7 47 -44 22 -31 51 -70 65 -87 14 -17 31
-43 37 -57 15 -35 69 -76 134 -100 29 -11 68 -34 86 -50 23 -20 44 -29 67 -29
19 0 36 -6 39 -13 2 -7 26 -18 53 -26 46 -12 48 -14 24 -22 -19 -8 -46 -3
-117 20 -98 33 -133 37 -165 20 -15 -8 -19 -8 -13 1 5 8 1 7 -13 -1 -18 -11
-24 -10 -42 6 -11 10 -30 19 -40 20 -25 2 -29 6 -33 36 -2 13 -10 25 -18 26
-68 9 -90 16 -99 33 -9 17 -7 20 10 20 11 0 20 -6 20 -14 0 -15 21 -26 51 -26
58 0 -38 81 -169 142 -57 27 -102 51 -99 54 3 3 24 -4 47 -16 29 -15 46 -18
53 -11 15 15 -17 58 -56 74 -17 8 -38 21 -46 30 -12 15 -11 17 7 17 33 0 34
28 1 63 -24 25 -28 27 -19 9 15 -31 5 -40 -11 -10 -20 39 -48 50 -50 21 0 -11
-3 -13 -6 -5 -2 6 -13 12 -24 12 -14 0 -21 9 -25 29 -4 16 -17 40 -30 52 -31
29 -30 37 1 31 30 -5 32 7 6 39 -17 21 -22 22 -40 12 -29 -18 -31 -17 -31 18
0 18 -4 28 -10 24 -6 -3 -7 -17 -4 -31 5 -19 2 -24 -12 -24 -15 0 -13 -5 11
-30 25 -26 27 -32 15 -40 -23 -15 -28 -12 -40 25 -6 19 -19 39 -28 44 -9 5
-13 13 -9 17 4 4 -3 18 -15 31 -20 22 -21 25 -6 40 25 24 49 10 42 -25 -4 -19
-1 -32 10 -41 14 -12 16 -9 16 24 0 42 -23 75 -50 75 -53 0 -41 64 15 79 32 8
35 20 20 74 -7 25 -5 27 24 27 18 0 40 9 51 20 11 11 26 20 34 20 8 0 18 5 22
11 4 7 21 9 41 6 29 -5 33 -4 23 8 -9 11 -4 15 27 20 21 4 47 10 58 15 29 13
33 12 43 -7z m-343 -122 c3 -6 -4 -15 -15 -21 -19 -10 -21 -9 -19 6 0 4 -5 11
-13 15 -9 6 -5 9 14 9 15 0 29 -4 33 -9z m-95 -21 c0 -5 -5 -10 -11 -10 -5 0
-7 5 -4 10 3 6 8 10 11 10 2 0 4 -4 4 -10z m7 -76 c-3 -3 -12 -4 -19 -1 -8 3
-5 6 6 6 11 1 17 -2 13 -5z m-67 -34 c0 -5 -2 -10 -4 -10 -3 0 -8 5 -11 10 -3
6 -1 10 4 10 6 0 11 -4 11 -10z m39 -120 c6 -28 17 -66 26 -86 27 -66 -7 -22
-41 53 -39 86 -40 90 -19 73 13 -11 14 -10 9 5 -5 12 -4 16 3 12 6 -4 16 -30
22 -57z m246 -117 c3 -15 16 -40 27 -55 11 -16 18 -31 16 -33 -5 -5 -128 52
-128 59 0 2 -3 12 -7 22 -5 14 -2 16 19 11 15 -4 34 -10 44 -14 14 -5 16 -2
12 15 -4 12 -3 22 2 22 4 0 11 -12 15 -27z m-205 -47 c10 -22 41 -72 70 -110
29 -39 57 -81 63 -95 13 -28 90 -111 104 -111 4 0 13 -10 18 -22 6 -13 22 -28
36 -35 14 -7 34 -22 45 -34 l19 -22 -30 7 c-28 7 -106 72 -151 126 -64 78
-233 363 -204 345 6 -4 20 -26 30 -49z m267 -72 c14 -4 20 -11 16 -18 -13 -19
-10 -30 12 -61 24 -33 39 -69 28 -63 -5 2 -32 16 -60 31 -53 27 -69 41 -35 31
15 -5 15 -4 2 8 -8 7 -20 23 -27 34 -10 19 -9 23 10 32 27 13 27 13 54 6z
m118 -172 c-3 -3 -11 0 -18 7 -9 10 -8 11 6 5 10 -3 15 -9 12 -12z m-34 -24
c22 -6 39 -15 39 -20 0 -17 -78 -8 -101 12 l-24 19 24 1 c13 0 41 -5 62 -12z
m90 -14 c17 -8 29 -18 26 -20 -6 -6 -67 23 -67 31 0 8 10 6 41 -11z m54 6 c13
-5 14 -9 5 -9 -8 0 -24 4 -35 9 -13 5 -14 9 -5 9 8 0 24 -4 35 -9z m-15 -50
c8 -5 11 -10 5 -10 -5 0 -17 5 -25 10 -8 5 -10 10 -5 10 6 0 17 -5 25 -10z
m15 -50 c3 -5 -4 -6 -15 -3 -11 3 -22 9 -25 13 -3 5 4 6 15 3 11 -3 22 -9 25
-13z m0 -130 c32 -17 66 -28 74 -25 9 3 12 3 8 -1 -12 -12 101 -54 173 -64 36
-6 120 -12 188 -14 145 -4 176 -16 41 -16 -125 0 -306 26 -397 56 -76 25 -187
79 -142 69 l25 -6 -25 15 c-44 27 -7 17 55 -14z m403 -7 c-2 -11 -14 -18 -32
-20 -27 -2 -28 -1 -11 18 22 24 48 25 43 2z m32 -13 c-11 -7 -12 -10 -2 -10 7
0 10 -5 6 -11 -4 -8 -10 -6 -17 6 -7 12 -5 20 4 26 7 4 16 6 18 3 3 -3 -1 -9
-9 -14z m345 12 c24 -5 35 -11 28 -15 -16 -10 -144 3 -137 14 6 11 53 11 109
1z m263 -9 c-10 -2 -28 -2 -40 0 -13 2 -5 4 17 4 22 1 32 -1 23 -4z m-823 -44
c18 -7 17 -8 -5 -8 -14 0 -38 6 -55 14 l-30 14 35 -6 c19 -3 44 -10 55 -14z"/>
<path d="M356 1252 c-2 -4 13 -6 35 -4 21 2 39 6 39 8 0 7 -69 4 -74 -4z"/>
<path d="M290 1220 c0 -5 7 -10 16 -10 8 0 12 5 9 10 -3 6 -10 10 -16 10 -5 0
-9 -4 -9 -10z"/>
<path d="M260 1191 c0 -10 30 -24 37 -17 3 3 2 9 -2 15 -8 13 -35 15 -35 2z"/>
<path d="M581 1096 c-12 -31 -9 -56 8 -56 15 0 22 35 12 61 l-9 24 -11 -29z"/>
<path d="M370 1027 c0 -14 20 -37 32 -37 16 0 8 25 -12 38 -16 10 -20 10 -20
-1z"/>
<path d="M340 971 c0 -12 20 -27 49 -36 16 -5 21 -4 17 4 -10 16 -66 43 -66
32z"/>
<path d="M390 970 c8 -5 20 -10 25 -10 6 0 3 5 -5 10 -8 5 -19 10 -25 10 -5 0
-3 -5 5 -10z"/>
<path d="M325 940 c17 -20 18 -23 3 -17 -10 4 -18 2 -18 -4 0 -6 -6 -7 -12 -3
-7 4 -4 -2 6 -14 24 -27 36 -28 36 -2 0 11 5 20 11 20 15 0 1 18 -24 31 l-22
12 20 -23z"/>
<path d="M546 870 c-7 -27 5 -73 23 -85 7 -4 11 8 11 34 0 23 -4 41 -9 41 -5
0 -11 8 -14 18 -3 13 -5 11 -11 -8z"/>
<path d="M408 847 c-3 -15 -2 -24 2 -22 4 2 12 -7 18 -20 12 -27 47 -34 55
-11 3 7 -8 27 -25 42 l-30 29 6 -25 c5 -22 4 -21 -8 4 l-13 29 -5 -26z"/>
<path d="M671 644 c0 -11 3 -14 6 -6 3 7 2 16 -1 19 -3 4 -6 -2 -5 -13z"/>
<path d="M800 422 c0 -5 7 -15 15 -22 8 -7 15 -8 15 -2 0 5 -7 15 -15 22 -8 7
-15 8 -15 2z"/>
<path d="M680 125 c14 -8 30 -14 35 -14 6 0 -1 6 -15 14 -14 8 -29 14 -35 14
-5 0 1 -6 15 -14z"/>
</g>
</svg>
